Coordinates
version=1
nRows=26
nColumns=24
inDegrees=yes

Units are S.I. units (second, meters, Newtons, ...)
Angles are in degrees.

endheader
time	pelvis_tilt	pelvis_list	pelvis_rotation	pelvis_tx	pelvis_ty	pelvis_tz	hip_flexion_r	hip_adduction_r	hip_rotation_r	knee_angle_r	ankle_angle_r	subtalar_angle_r	mtp_angle_r	hip_flexion_l	hip_adduction_l	hip_rotation_l	knee_angle_l	ankle_angle_l	subtalar_angle_l	mtp_angle_l	lumbar_extension	lumbar_bending	lumbar_rotation
      5.80000000	     60.41146145	      3.58437023	      8.60167346	      0.77849650	      1.08481505	     -0.27585603	     -3.14385908	    -11.30810318	     -3.90527739	    -52.41339363	    -16.49505406	      0.90172403	     49.21212254	      9.87984675	    -18.74737953	      3.23512990	    -64.25812197	     -4.77336708	     13.59504887	    -39.69464979	      0.00000000	      0.00000000	      0.00000000
      5.81000000	     60.40784808	      3.58346794	      8.60170019	      0.77849038	      1.08483474	     -0.27586611	     -3.15801567	    -11.30935418	     -3.89083249	    -52.37863332	    -16.46782740	      0.93477463	     49.27557686	      9.88154497	    -18.74303269	      3.22811144	    -64.21699705	     -4.76593423	     13.59984136	    -39.67863785	      0.00000000	      0.00000000	      0.00000000
      5.82000000	     60.40385338	      3.58387140	      8.60156784	      0.77850740	      1.08480659	     -0.27585269	     -3.17384686	    -11.31209732	     -3.87212668	    -52.33524189	    -16.44179206	      0.96306429	     49.33361343	      9.88650464	    -18.73992755	      3.22048478	    -64.18062073	     -4.76205735	     13.60261932	    -39.66973804	      0.00000000	      0.00000000	      0.00000000
      5.83000000	     60.40056743	      3.58432827	      8.60125729	      0.77855337	      1.08472680	     -0.27581159	     -3.18683263	    -11.31585309	     -3.85403632	    -52.29580565	    -16.42513161	      0.98065718	     49.37856356	      9.89189967	    -18.73743611	      3.21178463	    -64.14720176	     -4.76026572	     13.60491068	    -39.66707874	      0.00000000	      0.00000000	      0.00000000
      5.84000000	     60.39830910	      3.58372012	      8.60025731	      0.77858412	      1.08468261	     -0.27578422	     -3.19269695	    -11.31855225	     -3.84290849	    -52.27499738	    -16.42493514	      0.98297614	     49.40419801	      9.89377813	    -18.73436301	      3.20156926	    -64.11504630	     -4.75848676	     13.60801003	    -39.66977426	      0.00000000	      0.00000000	      0.00000000
      5.85000000	     60.39731121	      3.58179376	      8.59785062	      0.77856894	      1.08474260	     -0.27580127	     -3.18931476	    -11.31912129	     -3.84258361	    -52.28074238	    -16.44383698	      0.96843682	     49.40711429	      9.88987911	    -18.73028440	      3.19006294	    -64.08348923	     -4.75459328	     13.61260385	    -39.67689594	      0.00000000	      0.00000000	      0.00000000
      5.86000000	     60.39807443	      3.57893988	      8.59403566	      0.77854401	      1.08484107	     -0.27582875	     -3.17774194	    -11.31925815	     -3.85155989	    -52.30885064	    -16.47825327	      0.93939969	     49.38767665	      9.88104033	    -18.72612748	      3.17827251	    -64.05333822	     -4.74708263	     13.61862113	    -39.68743059	      0.00000000	      0.00000000	      0.00000000
      5.87000000	     60.40065582	      3.57609679	      8.58955363	      0.77854441	      1.08488359	     -0.27582551	     -3.16160883	    -11.32137552	     -3.86444669	    -52.34679981	    -16.51964988	      0.90195518	     49.35017222	      9.86995241	    -18.72339079	      3.16740495	    -64.02662999	     -4.73563759	     13.62529748	    -39.70024182	      0.00000000	      0.00000000	      0.00000000
      5.88000000	     60.40428234	      3.57408727	      8.58521778	      0.77855794	      1.08486613	     -0.27579836	     -3.14566714	    -11.32584621	     -3.87575526	    -52.38177754	    -16.55774540	      0.86451767	     49.30207043	      9.85924425	    -18.72271870	      3.15798748	    -64.00558519	     -4.72127668	     13.63134599	    -39.71405741	      0.00000000	      0.00000000	      0.00000000
      5.89000000	     60.40778071	      3.57270582	      8.58152942	      0.77856886	      1.08483607	     -0.27577411	     -3.13444757	    -11.33073759	     -3.88243454	    -52.40564175	    -16.58361419	      0.83566267	     49.25257108	      9.85064281	    -18.72322664	      3.14940602	    -63.99157417	     -4.70600025	     13.63519595	    -39.72751578	      0.00000000	      0.00000000	      0.00000000
      5.90000000	     60.41003445	      3.57101535	      8.57868399	      0.77858108	      1.08482484	     -0.27576549	     -3.13112915	    -11.33337039	     -3.88400891	    -52.41521268	    -16.59166301	      0.82187673	     49.21081189	      9.84503429	    -18.72323066	      3.14032561	    -63.98504863	     -4.69216568	     13.63537480	    -39.73928917	      0.00000000	      0.00000000	      0.00000000
      5.91000000	     60.41033818	      3.56848864	      8.57668043	      0.77859675	      1.08483882	     -0.27577109	     -3.13668212	    -11.33227455	     -3.88113736	    -52.41012790	    -16.58044203	      0.82585954	     49.18412860	      9.84287196	    -18.72168742	      3.12976239	    -63.98608676	     -4.68188209	     13.63099888	    -39.74825388	      0.00000000	      0.00000000	      0.00000000
      5.92000000	     60.40875755	      3.56576642	      8.57526575	      0.77860698	      1.08487417	     -0.27578651	     -3.14969756	    -11.32828244	     -3.87431123	    -52.39135304	    -16.55267759	      0.84582341	     49.17669993	      9.84455649	    -18.71914294	      3.11800318	    -63.99451651	     -4.67656813	     13.62215596	    -39.75364939	      0.00000000	      0.00000000	      0.00000000
      5.93000000	     60.40610633	      3.56411600	      8.57403536	      0.77861155	      1.08490700	     -0.27580082	     -3.16694540	    -11.32399156	     -3.86395926	    -52.36189864	    -16.51481763	      0.87596354	     49.18881569	      9.85011624	    -18.71730421	      3.10652753	    -64.00943358	     -4.67677785	     13.61003048	    -39.75518999	      0.00000000	      0.00000000	      0.00000000
      5.94000000	     60.40348220	      3.56397065	      8.57286763	      0.77863092	      1.08488989	     -0.27579247	     -3.18412991	    -11.32178542	     -3.85178480	    -52.32869246	    -16.47601981	      0.90797904	     49.21689787	      9.85816419	    -18.71741621	      3.09690588	    -64.02881714	     -4.68236637	     13.59676743	    -39.75312408	      0.00000000	      0.00000000	      0.00000000
      5.95000000	     60.40178215	      3.56438503	      8.57194925	      0.77867564	      1.08481391	     -0.27575593	     -3.19672802	    -11.32171144	     -3.84179520	    -52.30287431	    -16.44627557	      0.93324640	     49.25428027	      9.86550960	    -18.71899669	      3.08974001	    -64.04984859	     -4.69283679	     13.58505458	    -39.74824379	      0.00000000	      0.00000000	      0.00000000
      5.96000000	     60.40137924	      3.56415607	      8.57121502	      0.77870801	      1.08476321	     -0.27573034	     -3.20130556	    -11.32140482	     -3.83914498	    -52.29599679	    -16.43359054	      0.94505530	     49.29260109	      9.86850313	    -18.72044174	      3.08471555	    -64.06991764	     -4.70753698	     13.57742094	    -39.74183504	      0.00000000	      0.00000000	      0.00000000
      5.97000000	     60.40217882	      3.56275438	      8.57041374	      0.77869155	      1.08480655	     -0.27575053	     -3.19705005	    -11.31902078	     -3.84656010	    -52.31264933	    -16.44097124	      0.94027664	     49.32350489	      9.86535965	    -18.72083812	      3.08148221	    -64.08772164	     -4.72557353	     13.57547328	    -39.73555041	      0.00000000	      0.00000000	      0.00000000
      5.98000000	     60.40394364	      3.56030757	      8.56970413	      0.77865716	      1.08488324	     -0.27578772	     -3.18627991	    -11.31549968	     -3.86172055	    -52.34620024	    -16.46509236	      0.91996797	     49.34024962	      9.85748456	    -18.72075478	      3.08013158	    -64.10378090	     -4.74564285	     13.57943831	    -39.73119685	      0.00000000	      0.00000000	      0.00000000
      5.99000000	     60.40626381	      3.55764354	      8.56945679	      0.77865026	      1.08491211	     -0.27579695	     -3.17327306	    -11.31280552	     -3.87882642	    -52.38330460	    -16.49794952	      0.88873697	     49.33883237	      9.84856062	    -18.72130234	      3.08083519	    -64.12006056	     -4.76603594	     13.58818647	    -39.73045257	      0.00000000	      0.00000000	      0.00000000
      6.00000000	     60.40827394	      3.55595415	      8.56978888	      0.77866764	      1.08489947	     -0.27577806	     -3.16222474	    -11.31135967	     -3.89240091	    -52.41236490	    -16.53033683	      0.85313487	     49.31842055	      9.84213189	    -18.72295404	      3.08337913	    -64.13890280	     -4.78491180	     13.59961871	    -39.73455641	      0.00000000	      0.00000000	      0.00000000
      6.01000000	     60.40889105	      3.55593570	      8.57065068	      0.77868155	      1.08488378	     -0.27575989	     -3.15552194	    -11.31000332	     -3.89979710	    -52.42853007	    -16.55499298	      0.81970738	     49.28113523	      9.83978958	    -18.72536279	      3.08715685	    -64.16192489	     -4.80081083	     13.61122506	    -39.74404038	      0.00000000	      0.00000000	      0.00000000
      6.02000000	     60.40769074	      3.55725882	      8.57200673	      0.77867945	      1.08487736	     -0.27575761	     -3.15317959	    -11.30748774	     -3.90144864	    -52.43369168	    -16.56825249	      0.79336880	     49.23139671	      9.84134793	    -18.72779246	      3.09139134	    -64.18952483	     -4.81324118	     13.62068250	    -39.75858058	      0.00000000	      0.00000000	      0.00000000
      6.03000000	     60.40530657	      3.55886665	      8.57368177	      0.77866876	      1.08487548	     -0.27576035	     -3.15351371	    -11.30354194	     -3.89969530	    -52.43345487	    -16.57010453	      0.77653253	     49.17505410	      9.84598118	    -18.72960003	      3.09548481	    -64.22121357	     -4.82301204	     13.62634060	    -39.77700820	      0.00000000	      0.00000000	      0.00000000
      6.04000000	     60.40282539	      3.55992891	      8.57510229	      0.77866033	      1.08487670	     -0.27575494	     -3.15426917	    -11.29882802	     -3.89728159	    -52.43350641	    -16.56316666	      0.76910739	     49.11846531	      9.85277462	    -18.73066563	      3.09949824	    -64.25635218	     -4.83204293	     13.62743718	    -39.79746782	      0.00000000	      0.00000000	      0.00000000
      6.05000000	     60.40102242	      3.56038551	      8.57552849	      0.77865900	      1.08488102	     -0.27574604	     -3.15354966	    -11.29436347	     -3.89612459	    -52.43712796	    -16.55126996	      0.76917633	     49.06763733	      9.86071355	    -18.73149568	      3.10423769	    -64.29452904	     -4.84264974	     13.62399933	    -39.81767846	      0.00000000	      0.00000000	      0.00000000
